<?xml version="1.0" encoding="UTF-8"?>
<svg width="100px" height="25px" viewBox="0 0 100 25" version="1.1" xmlns="http://www.w3.org/2000/svg" xmlns:xlink="http://www.w3.org/1999/xlink">
    <!-- Generator: Sketch 49.2 (51160) - http://www.bohemiancoding.com/sketch -->
    <title>android logo</title>
    <desc>Created with Sketch.</desc>
    <defs></defs>
    <g id="Page-1" stroke="none" stroke-width="1" fill="none" fill-rule="evenodd">
        <g id="android-logo" fill-rule="nonzero">
            <path d="M26.3909774,18.8461538 L26.3909774,7.11538462 L29.887218,7.11538462 C31.6541353,7.11538462 33.0451128,7.65384615 34.1353383,8.73076923 C35.1879699,9.80769231 35.7142857,11.2307692 35.7142857,12.9615385 C35.7142857,14.6923077 35.1879699,16.1153846 34.1353383,17.1923077 C33.0827068,18.3076923 31.6541353,18.8461538 29.887218,18.8461538 L26.3909774,18.8461538 Z M27.8571429,17.3846154 L29.887218,17.3846154 C31.2030075,17.3846154 32.2556391,17 33.0451128,16.2307692 C33.8345865,15.4615385 34.2105263,14.3846154 34.2105263,12.9615385 C34.2105263,11.5769231 33.8345865,10.5 33.0451128,9.69230769 C32.2556391,8.92307692 31.2030075,8.5 29.887218,8.5 L27.8571429,8.5 L27.8571429,17.3846154 Z M40.4135338,19.1153846 C39.2105263,19.1153846 38.2706767,18.6923077 37.518797,17.8846154 C36.7669173,17.0769231 36.3909774,16.0384615 36.3909774,14.8076923 C36.3909774,13.6538462 36.7669173,12.6153846 37.481203,11.7692308 C38.1954887,10.9230769 39.1353383,10.5 40.2631579,10.5 C41.4285714,10.5 42.3684211,10.8846154 43.0451128,11.6538462 C43.7593985,12.4230769 44.0977444,13.4615385 44.0977444,14.7692308 L44.0977444,15.0384615 L37.8947368,15.0384615 C37.9323308,15.8461538 38.1954887,16.5 38.6842105,16.9615385 C39.1729323,17.4230769 39.7368421,17.6538462 40.3759398,17.6538462 C41.4285714,17.6538462 42.1428571,17.1923077 42.518797,16.2692308 L43.8345865,16.8461538 C43.5714286,17.4615385 43.1578947,18 42.556391,18.4230769 C41.9548872,18.8461538 41.2781955,19.1153846 40.4135338,19.1153846 Z M42.556391,13.8461538 C42.518797,13.3846154 42.3308271,12.9615385 41.9548872,12.5384615 C41.5789474,12.1153846 41.0150376,11.9230769 40.2631579,11.9230769 C39.6992481,11.9230769 39.2481203,12.1153846 38.8345865,12.4615385 C38.4210526,12.8076923 38.1578947,13.2692308 38.0075188,13.8846154 L42.556391,13.8846154 L42.556391,13.8461538 Z M47.1052632,18.8461538 L43.9473684,10.8076923 L45.5639098,10.8076923 L47.8571429,17.0384615 L47.8947368,17.0384615 L50.2255639,10.8076923 L51.8045113,10.8076923 L48.5714286,18.8461538 L47.1052632,18.8461538 Z M55.5639098,19.1153846 C54.3609023,19.1153846 53.4210526,18.6923077 52.6691729,17.8846154 C51.9172932,17.0769231 51.5413534,16.0384615 51.5413534,14.8076923 C51.5413534,13.6538462 51.9172932,12.6153846 52.6315789,11.7692308 C53.3458647,10.9230769 54.2857143,10.5 55.4135338,10.5 C56.5789474,10.5 57.518797,10.8846154 58.1954887,11.6538462 C58.9097744,12.4230769 59.2481203,13.4615385 59.2481203,14.7692308 L59.2481203,15.0384615 L53.0451128,15.0384615 C53.0827068,15.8461538 53.3458647,16.5 53.8345865,16.9615385 C54.3233083,17.4230769 54.887218,17.6538462 55.5263158,17.6538462 C56.5789474,17.6538462 57.2932331,17.1923077 57.6691729,16.2692308 L59.0225564,16.9230769 C58.7593985,17.5384615 58.3458647,18.0769231 57.7443609,18.5 C57.1428571,18.9230769 56.4285714,19.1153846 55.5639098,19.1153846 Z M57.7067669,13.8461538 C57.6691729,13.3846154 57.481203,12.9615385 57.1052632,12.5384615 C56.7293233,12.1153846 56.1654135,11.9230769 55.4135338,11.9230769 C54.8496241,11.9230769 54.3984962,12.1153846 53.9849624,12.4615385 C53.5714286,12.8076923 53.3082707,13.2692308 53.1578947,13.8846154 L57.7067669,13.8846154 L57.7067669,13.8461538 Z M61.6541353,18.8461538 L60.1879699,18.8461538 L60.1879699,7.11538462 L61.6541353,7.11538462 L61.6541353,18.8461538 Z M63.7593985,11.7692308 C64.5112782,10.9615385 65.4887218,10.5384615 66.6541353,10.5384615 C67.8195489,10.5384615 68.7969925,10.9615385 69.5488722,11.7692308 C70.3007519,12.5769231 70.6766917,13.6153846 70.6766917,14.8461538 C70.6766917,16.0769231 70.3007519,17.0769231 69.5488722,17.9230769 C68.7969925,18.7307692 67.8195489,19.1538462 66.6541353,19.1538462 C65.4887218,19.1538462 64.5112782,18.7307692 63.7593985,17.9230769 C63.0075188,17.1153846 62.6315789,16.0769231 62.6315789,14.8461538 C62.6315789,13.6153846 63.0075188,12.5769231 63.7593985,11.7692308 Z M64.8496241,16.9230769 C65.3759398,17.4615385 65.9774436,17.7307692 66.6541353,17.7307692 C67.3308271,17.7307692 67.9323308,17.4615385 68.4586466,16.9230769 C68.9849624,16.3846154 69.2105263,15.6923077 69.2105263,14.8076923 C69.2105263,13.9230769 68.9473684,13.2307692 68.4586466,12.6923077 C67.9323308,12.1538462 67.3308271,11.8846154 66.6541353,11.8846154 C65.9774436,11.8846154 65.3759398,12.1538462 64.8496241,12.6923077 C64.3233083,13.2307692 64.0977444,13.9230769 64.0977444,14.8076923 C64.0977444,15.6923077 64.3609023,16.3846154 64.8496241,16.9230769 Z M75.7518797,19.1153846 C75.1503759,19.1153846 74.6240602,19 74.1353383,18.7307692 C73.6466165,18.4615385 73.3082707,18.1538462 73.0827068,17.7307692 L73.0075188,17.7307692 L73.0827068,18.8461538 L73.0827068,22.3846154 L71.6165414,22.3846154 L71.6165414,10.8076923 L73.0451128,10.8076923 L73.0451128,11.9230769 L73.1203008,11.9230769 C73.3458647,11.5384615 73.7218045,11.1923077 74.1729323,10.9230769 C74.6616541,10.6538462 75.1879699,10.5384615 75.7894737,10.5384615 C76.8045113,10.5384615 77.6691729,10.9615385 78.4210526,11.7692308 C79.1729323,12.5769231 79.5112782,13.6153846 79.5112782,14.8076923 C79.5112782,16.0384615 79.1353383,17.0384615 78.4210526,17.8461538 C77.6315789,18.6923077 76.7669173,19.1153846 75.7518797,19.1153846 Z M75.5263158,17.7307692 C76.2030075,17.7307692 76.8045113,17.4615385 77.2932331,16.9230769 C77.7819549,16.3846154 78.0451128,15.6923077 78.0451128,14.8076923 C78.0451128,13.9230769 77.7819549,13.2307692 77.2932331,12.6923077 C76.8045113,12.1538462 76.2030075,11.8846154 75.5263158,11.8846154 C74.8496241,11.8846154 74.2481203,12.1538462 73.7593985,12.6538462 C73.2706767,13.1923077 73.0451128,13.8846154 73.0451128,14.7692308 C73.0451128,15.6538462 73.2706767,16.3461538 73.7593985,16.8846154 C74.2105263,17.4615385 74.8120301,17.7307692 75.5263158,17.7307692 Z M84.0225564,19.1153846 C82.8195489,19.1153846 81.8796992,18.6923077 81.1278195,17.8846154 C80.3759398,17.0769231 80,16.0384615 80,14.8076923 C80,13.6538462 80.3759398,12.6153846 81.0902256,11.7692308 C81.8045113,10.9230769 82.7443609,10.5 83.8721805,10.5 C85.037594,10.5 85.9774436,10.8846154 86.6541353,11.6538462 C87.3684211,12.4230769 87.7067669,13.4615385 87.7067669,14.7692308 L87.7067669,15.0384615 L81.5037594,15.0384615 C81.5413534,15.8461538 81.8045113,16.5 82.2932331,16.9615385 C82.7819549,17.4230769 83.3458647,17.6538462 83.9849624,17.6538462 C85.037594,17.6538462 85.7518797,17.1923077 86.1278195,16.2692308 L87.443609,16.8461538 C87.1804511,17.4615385 86.7669173,18 86.1654135,18.4230769 C85.5639098,18.8461538 84.887218,19.1153846 84.0225564,19.1153846 Z M86.1278195,13.8461538 C86.0902256,13.3846154 85.9022556,12.9615385 85.5263158,12.5384615 C85.1503759,12.1153846 84.5864662,11.9230769 83.8345865,11.9230769 C83.2706767,11.9230769 82.8195489,12.1153846 82.406015,12.4615385 C81.9924812,12.8076923 81.7293233,13.2692308 81.5789474,13.8846154 L86.1278195,13.8846154 L86.1278195,13.8461538 Z M90.075188,18.8461538 L88.6090226,18.8461538 L88.6090226,10.8076923 L90.037594,10.8076923 L90.037594,12.1153846 L90.112782,12.1153846 C90.2631579,11.6923077 90.5639098,11.3076923 91.0526316,11.0384615 C91.5037594,10.7692308 91.9548872,10.6153846 92.406015,10.6153846 C92.8571429,10.6153846 93.1954887,10.6923077 93.4962406,10.8076923 L92.9323308,12.2307692 C92.7443609,12.1538462 92.481203,12.1153846 92.1428571,12.1153846 C91.6165414,12.1153846 91.1278195,12.3461538 90.7142857,12.7692308 C90.3007519,13.1923077 90.112782,13.7692308 90.112782,14.4615385 L90.112782,18.8461538 L90.075188,18.8461538 Z M96.8045113,19.1153846 C95.9398496,19.1153846 95.1879699,18.8846154 94.6240602,18.4615385 C94.0601504,18.0384615 93.6466165,17.4615385 93.3834586,16.8076923 L94.6992481,16.2307692 C95.112782,17.2307692 95.8270677,17.7307692 96.8421053,17.7307692 C97.2932331,17.7307692 97.6691729,17.6153846 97.9699248,17.4230769 C98.2706767,17.2307692 98.4210526,16.9230769 98.4210526,16.6153846 C98.4210526,16.0769231 98.0451128,15.7307692 97.3308271,15.5384615 L95.7518797,15.1538462 C95.2631579,15.0384615 94.7744361,14.7692308 94.3233083,14.4230769 C93.8721805,14.0384615 93.6466165,13.5769231 93.6466165,12.9230769 C93.6466165,12.2307692 93.9473684,11.6538462 94.5864662,11.1923077 C95.1879699,10.7307692 95.9398496,10.5384615 96.7669173,10.5384615 C97.443609,10.5384615 98.0827068,10.6923077 98.6090226,11.0384615 C99.1729323,11.3461538 99.5488722,11.8076923 99.7744361,12.4230769 L98.4962406,12.9615385 C98.1954887,12.2692308 97.593985,11.8846154 96.6917293,11.8846154 C96.2406015,11.8846154 95.9022556,11.9615385 95.6015038,12.1538462 C95.3007519,12.3461538 95.1503759,12.5769231 95.1503759,12.9230769 C95.1503759,13.3846154 95.4887218,13.6923077 96.2030075,13.8461538 L97.7443609,14.2307692 C98.4962406,14.4230769 99.0225564,14.6923077 99.3984962,15.1153846 C99.7368421,15.5384615 99.924812,16.0384615 99.924812,16.5769231 C99.924812,17.3076923 99.6240602,17.8846154 99.0601504,18.3846154 C98.4586466,18.8846154 97.7067669,19.1153846 96.8045113,19.1153846 Z" id="XMLID_6_" fill="#FFFFFF"></path>
            <path d="M1.46616541,8.34615385 C0.639097744,8.34615385 0,9.03846154 0,9.84615385 L0,16.1923077 C0,17.0384615 0.676691729,17.7307692 1.5037594,17.7307692 C2.33082707,17.7307692 3.0075188,17.0384615 2.96992481,16.1923077 L2.96992481,9.84615385 C2.96992481,9.03846154 2.29323308,8.34615385 1.46616541,8.34615385 Z M13.4586466,2.61538462 L14.5112782,0.692307692 C14.5488722,0.576923077 14.5488722,0.461538462 14.4360902,0.423076923 C14.3233083,0.384615385 14.2105263,0.423076923 14.1729323,0.5 L13.1203008,2.46153846 C12.2556391,2.07692308 11.2406015,1.84615385 10.2255639,1.84615385 C9.17293233,1.84615385 8.19548872,2.07692308 7.33082707,2.46153846 L6.27819549,0.5 C6.2406015,0.384615385 6.09022556,0.346153846 6.01503759,0.423076923 C5.90225564,0.461538462 5.86466165,0.615384615 5.93984962,0.692307692 L6.9924812,2.61538462 C4.84962406,3.69230769 3.4962406,5.76923077 3.4962406,8.11538462 L16.8796992,8.11538462 C16.8796992,5.76923077 15.4887218,3.69230769 13.4586466,2.61538462 Z M7.14285714,5.61538462 C6.84210526,5.61538462 6.57894737,5.34615385 6.57894737,5.03846154 C6.57894737,4.73076923 6.84210526,4.46153846 7.14285714,4.46153846 C7.44360902,4.46153846 7.70676692,4.73076923 7.70676692,5.03846154 C7.70676692,5.38461538 7.44360902,5.61538462 7.14285714,5.61538462 Z M13.2330827,5.61538462 C12.9323308,5.61538462 12.6691729,5.34615385 12.6691729,5.03846154 C12.6691729,4.73076923 12.9323308,4.46153846 13.2330827,4.46153846 C13.5338346,4.46153846 13.7969925,4.73076923 13.7969925,5.03846154 C13.7969925,5.38461538 13.5338346,5.61538462 13.2330827,5.61538462 Z M3.53383459,8.61538462 L3.53383459,18.4615385 C3.53383459,19.3461538 4.2481203,20.0769231 5.11278195,20.0769231 L6.20300752,20.0769231 L6.20300752,23.4615385 C6.20300752,24.3076923 6.87969925,25 7.66917293,25 C8.4962406,25 9.17293233,24.3076923 9.17293233,23.4615385 L9.17293233,20.0769231 L11.1654135,20.0769231 L11.1654135,23.4615385 C11.1654135,24.3076923 11.8421053,25 12.6315789,24.9615385 C13.4586466,24.9615385 14.1353383,24.2692308 14.1353383,23.4230769 L14.1353383,20.0769231 L15.2255639,20.0769231 C16.0902256,20.0769231 16.8045113,19.3461538 16.8045113,18.4615385 L16.8045113,8.61538462 L3.53383459,8.61538462 Z M20.3759398,9.84615385 C20.3759398,9 19.6992481,8.34615385 18.9097744,8.34615385 C18.0827068,8.34615385 17.443609,9.03846154 17.443609,9.88461538 L17.443609,16.2307692 C17.443609,17.0769231 18.1203008,17.7307692 18.9097744,17.7307692 C19.7368421,17.7307692 20.3759398,17.0384615 20.3759398,16.1923077 L20.3759398,9.84615385 Z" id="Android" fill="#78C257"></path>
        </g>
    </g>
</svg>